Coordinates
version=1
nRows=7
nColumns=40
inDegrees=yes

Units are S.I. units (second, meters, Newtons, ...)
Angles are in degrees.

endheader
time	pelvis_tilt	pelvis_list	pelvis_rotation	pelvis_tx	pelvis_ty	pelvis_tz	hip_flexion_r	hip_adduction_r	hip_rotation_r	knee_angle_r	knee_angle_r_beta	ankle_angle_r	subtalar_angle_r	mtp_angle_r	hip_flexion_l	hip_adduction_l	hip_rotation_l	knee_angle_l	knee_angle_l_beta	ankle_angle_l	subtalar_angle_l	mtp_angle_l	lumbar_extension	lumbar_bending	lumbar_rotation	arm_flex_r	arm_add_r	arm_rot_r	elbow_flex_r	pro_sup_r	wrist_flex_r	wrist_dev_r	arm_flex_l	arm_add_l	arm_rot_l	elbow_flex_l	pro_sup_l	wrist_flex_l	wrist_dev_l
     19.61314286	     -4.28733443	     -3.39547428	     -3.47437488	      1.04935822	      0.92995597	      0.43158013	     25.05619058	     -2.77632006	    -14.31851275	     10.84250638	     10.84250638	      1.75241126	      9.55638330	      9.48430278	      3.40230086	     -4.84718858	    -14.44969183	     13.46091902	     13.46091902	     15.35015044	     -3.10546500	     -6.77360475	     -9.96773235	      2.90191911	      0.86937211	    -16.50665669	    -13.16321357	     -4.93446273	     28.48539823	     46.60422470	      0.00000000	      0.00000000	     27.05141426	    -21.21316890	     -5.34011386	     57.97785180	     46.56115921	      0.00000000	      0.00000000
     19.62628571	     -4.17299002	     -3.32249471	     -3.61929800	      1.05147237	      0.92928201	      0.43397591	     24.68974457	     -2.59731421	    -14.32789417	     12.18689092	     12.18689092	      1.75415396	      8.56392354	      8.03793467	      2.52172130	     -4.82303898	    -14.54571011	     13.07364851	     13.07364851	     15.64408497	     -3.00888273	     -6.67801246	     -9.83663490	      2.84850057	      0.79853591	    -16.59600598	    -13.26846143	     -5.00000150	     28.68382208	     46.59255100	      0.00000000	      0.00000000	     26.50975231	    -21.08299562	     -5.83870826	     58.44349450	     46.61165276	      0.00000000	      0.00000000
     19.63942857	     -4.00237634	     -3.29373277	     -3.69350354	      1.05392521	      0.92852327	      0.43648436	     24.03487754	     -2.30494565	    -13.91692140	     13.16424982	     13.16424982	      0.76914130	      7.04192601	      3.79155227	      1.62756298	     -4.88098481	    -14.67379948	     12.84115720	     12.84115720	     16.23680585	     -2.75540114	     -6.05803190	     -9.75202752	      2.88124116	      0.32802884	    -16.42320559	    -13.47200845	     -5.08362057	     29.21474155	     46.54736230	      0.00000000	      0.00000000	     25.22509053	    -20.90370996	     -7.62316409	     59.91598508	     46.79663411	      0.00000000	      0.00000000
     19.65257143	     -3.85218462	     -3.41281240	     -3.69688034	      1.05646763	      0.92782917	      0.43902823	     23.40097262	     -1.99425572	    -13.94800115	     14.28951644	     14.28951644	      1.15081445	      6.61878573	      3.37695818	      0.83511055	     -5.12579982	    -14.67189975	     12.74115030	     12.74115030	     16.58392930	     -2.71642423	     -6.04442934	     -9.59108635	      3.11232052	      0.37737945	    -16.26998446	    -13.57301941	     -5.08405432	     29.22831209	     46.54660205	      0.00000000	      0.00000000	     24.66633412	    -20.56368033	     -7.55405998	     59.72738750	     46.78581095	      0.00000000	      0.00000000
     19.66571429	     -3.66011100	     -3.24557795	     -3.76140948	      1.05904102	      0.92703066	      0.44167282	     23.07794674	     -1.99554234	    -13.41836433	     15.89754033	     15.89754033	      1.75937126	      5.66359745	      2.61184061	     -0.06811571	     -5.05156975	    -14.86356443	     12.51006223	     12.51006223	     17.01035304	     -2.36100265	     -5.72871015	     -9.46810105	      2.96996254	      0.31667766	    -15.89000108	    -13.68452790	     -5.08951953	     29.31678307	     46.54206017	      0.00000000	      0.00000000	     24.20581885	    -20.44934447	     -7.71155831	     59.59034657	     46.79728352	      0.00000000	      0.00000000
     19.67885714	     -3.53628783	     -3.23438365	     -3.77201165	      1.06164651	      0.92630504	      0.44446537	     22.63185380	     -1.77293833	    -12.77512085	     16.97375728	     16.97375728	      2.26220073	      4.75079349	      1.84295133	     -0.71045799	     -5.22616049	    -14.99363984	     12.66525018	     12.66525018	     17.65509537	     -2.04463371	     -5.01709657	     -9.25412839	      3.03935304	      0.17638990	    -15.30290464	    -13.72799153	     -5.07627354	     29.42542164	     46.53379808	      0.00000000	      0.00000000	     23.37545461	    -20.11184085	     -8.02005506	     59.42600886	     46.81981128	      0.00000000	      0.00000000
     19.69200000	     -3.37196897	     -3.33973136	     -3.73587246	      1.06417824	      0.92584474	      0.44737790	     22.07906611	     -1.42028913	    -12.17313898	     17.72926784	     17.72926784	      2.59777274	      3.85810310	      0.69794464	     -1.08364439	     -5.67416683	    -15.27172886	     13.50186831	     13.50186831	     19.02520022	     -1.28692846	     -2.79368085	     -9.13554420	      3.23529123	     -0.15908188	    -14.30055783	    -13.84208421	     -4.91987405	     29.24752521	     46.51479005	      0.00000000	      0.00000000	     22.33579923	    -19.73476582	     -9.11056749	     59.41013281	     46.91738954	      0.00000000	      0.00000000
